<svg xmlns="http://www.w3.org/2000/svg" viewBox="0 0 900 220" role="img" aria-label="orchestrator-loop — set one goal, get a verified result, stop babysitting. A Claude plugin for Cowork and Code.">
  <defs>
    <marker id="h-arrow" viewBox="0 0 10 10" refX="7" refY="5" markerWidth="5" markerHeight="5" orient="auto-start-reverse">
      <path d="M0 1 L9 5 L0 9 z" fill="#f78166"/>
    </marker>
    <marker id="h-arrow2" viewBox="0 0 10 10" refX="7" refY="5" markerWidth="5" markerHeight="5" orient="auto-start-reverse">
      <path d="M0 1 L9 5 L0 9 z" fill="#58a6ff"/>
    </marker>
  </defs>
  <style>
    .mono { font-family: ui-monospace, SFMono-Regular, Menlo, Consolas, monospace; }
    .sans { font-family: ui-sans-serif, -apple-system, "Segoe UI", Roboto, Helvetica, Arial, sans-serif; }
  </style>

  <rect x="0" y="0" width="900" height="220" rx="20" fill="#0d1117"/>
  <rect x="0.5" y="0.5" width="899" height="219" rx="19.5" fill="none" stroke="#21262d" stroke-width="1"/>

  <!-- text block -->
  <text class="mono" x="56" y="58" font-size="13" letter-spacing="2.4" fill="#6e7681">CLAUDE PLUGIN · COWORK &amp; CODE · v0.6.0</text>
  <text class="mono" x="53" y="119" font-size="48" font-weight="700" fill="#e6edf3">orchestrator<tspan fill="#58a6ff">-loop</tspan></text>
  <rect x="56" y="136" width="76" height="5" rx="2.5" fill="#f78166"/>
  <rect x="138" y="136" width="44" height="5" rx="2.5" fill="#58a6ff"/>
  <rect x="188" y="136" width="26" height="5" rx="2.5" fill="#3fb950"/>
  <text class="sans" x="56" y="182" font-size="21" font-weight="600" fill="#c9d1d9">Set one goal. Get a verified result. Stop babysitting.</text>

  <!-- loop emblem, right -->
  <g transform="translate(782,110)">
    <circle cx="0" cy="0" r="64" fill="#0b0f14" stroke="#21262d" stroke-width="1"/>
    <path d="M -34 -14 A 38 38 0 0 1 34 -14" fill="none" stroke="#f78166" stroke-width="6" stroke-linecap="round" marker-end="url(#h-arrow)"/>
    <path d="M 34 14 A 38 38 0 0 1 -34 14" fill="none" stroke="#58a6ff" stroke-width="6" stroke-linecap="round" marker-end="url(#h-arrow2)"/>
    <path d="M -13 1 L -3 12 L 16 -12" fill="none" stroke="#3fb950" stroke-width="6" stroke-linecap="round" stroke-linejoin="round"/>
  </g>
</svg>
